#!OML:ASF \\sashay\E\Suitcase\Project 1\Capture day 1\Session 1\Male1.ASF
:FULLY-SPECIFIED
:DEGREES
471
root 0.734957 17.2799 -0.738035 2.28811 1.43099 4.32731
lowerback 1.98526 -0.667624 -8.53032
upperback 0.591302 -1.05365 0.59553
thorax -0.33618 -0.531898 5.43168
lowerneck -13.3922 -1.57825 -2.1658
upperneck 22.6065 -1.59527 -0.430865
head 9.34309 -0.977694 0.0259716
rclavicle -1.22998e-014 3.97569e-015
rhumerus -37.3815 -27.4921 -63.5512
rradius 18.4115
rwrist -0.486364
rhand -12.7227 15.55
rfingers 7.12502
rthumb 13.3605 -14.0016
lclavicle -1.22998e-014 3.97569e-015
lhumerus -32.3572 4.85996 81.4407
lradius 29.4922
lwrist -6.44687
lhand -3.21911 42.804
lfingers 7.12502
lthumb 22.5037 71.5127
rfemur -25.1604 -7.64831 15.8069
rtibia 65.611
rfoot -12.0363 -6.62858
rtoes 9.3423
lfemur -8.98323 -1.20048 -29.7628
ltibia 24.5532
lfoot -20.1705 -2.44405
ltoes -3.68617
472
root 0.73717 17.2662 -0.621274 2.15742 1.29938 3.50922
lowerback 2.1381 -0.629107 -7.69784
upperback 0.511807 -1.00093 0.813758
thorax -0.524091 -0.49551 5.19179
lowerneck -13.1312 -1.74129 -2.32587
upperneck 22.1194 -1.86682 -0.131298
head 9.1319 -1.08304 0.127831
rclavicle 1.0461e-014 -1.53064e-014
rhumerus -37.0625 -26.4785 -64.3155
rradius 18.8509
rwrist -1.55217
rhand -12.7728 15.0909
rfingers 7.12502
rthumb 13.3122 -14.4639
lclavicle 1.0461e-014 -1.53064e-014
lhumerus -32.4128 4.3874 81.5033
lradius 30.0836
lwrist -6.28988
lhand -2.87113 43.0528
lfingers 7.12502
lthumb 22.8376 71.7206
rfemur -25.6771 -7.1534 16.7969
rtibia 64.3462
rfoot -12.8148 -6.88252
rtoes 10.1966
lfemur -8.57994 -1.24508 -28.9164
ltibia 24.921
lfoot -20.5222 -1.85764
ltoes -3.95837
473
root 0.74046 17.2236 -0.522805 2.14465 1.41809 4.2383
lowerback 1.94679 -0.671889 -8.44288
upperback 0.672505 -1.05024 0.648428
thorax -0.231278 -0.537457 5.43617
lowerneck -13.6793 -1.75639 -2.62232
upperneck 22.5734 -1.85526 0.0932494
head 9.39846 -1.07944 0.249199
rclavicle 5.29264e-015 -4.37326e-015
rhumerus -36.4873 -26.8152 -64.4346
rradius 19.1101
rwrist -1.50055
rhand -12.5813 15.7493
rfingers 7.12502
rthumb 13.4968 -13.7934
lclavicle 5.29264e-015 -4.37326e-015
lhumerus -31.5284 4.40025 81.6056
lradius 30.1927
lwrist -6.19433
lhand -2.75861 43.1396
lfingers 7.12502
lthumb 22.9456 71.7941
rfemur -26.5138 -7.20352 15.9847
rtibia 63.3081
rfoot -13.2735 -6.79161
rtoes 9.80912
lfemur -8.27126 -1.63189 -29.8188
ltibia 25.2519
lfoot -21.0151 -1.15865
ltoes -6.23716
474
root 0.746944 17.2387 -0.411329 2.14421 1.58965 3.92204
lowerback 2.16285 -0.73479 -8.11214
upperback 0.476175 -1.15502 0.726848
thorax -0.545676 -0.570142 5.33902
lowerneck -13.9866 -1.51894 -1.67031
upperneck 23.3305 -1.44679 -1.1039
head 9.69879 -0.945724 -0.281462
rclavicle -4.01048e-014 -1.86858e-014
rhumerus -36.4338 -26.5918 -64.6437
rradius 19.4647
rwrist -1.58393
rhand -12.4431 15.538
rfingers 7.12502
rthumb 13.63 -13.9958
lclavicle -4.01048e-014 -1.86858e-014
lhumerus -31.4305 3.71979 81.6824
lradius 30.4114
lwrist -5.93391
lhand -3.87744 42.1425
lfingers 7.12502
lthumb 21.8716 70.9263
rfemur -27.0712 -7.01354 16.3784
rtibia 61.805
rfoot -14.193 -7.22328
rtoes 7.74491
lfemur -7.80009 -1.75349 -29.4654
ltibia 25.4815
lfoot -21.7805 -1.29445
ltoes -5.2304
475
root 0.758761 17.201 -0.328269 2.18098 1.82288 4.1817
lowerback 2.3137 -0.756521 -8.09361
upperback 0.48215 -1.19801 0.575016
thorax -0.621433 -0.588539 5.17328
lowerneck -13.8656 -1.77151 -1.50959
upperneck 23.293 -1.8269 -1.17417
head 9.66056 -1.11556 -0.378348
rclavicle -2.89729e-014 -9.34288e-015
rhumerus -36.0402 -25.56 -65.4704
rradius 20.1428
rwrist -3.1776
rhand -12.413 15.968
rfingers 7.12502
rthumb 13.659 -13.5638
lclavicle -2.89729e-014 -9.34288e-015
lhumerus -31.1097 2.84312 81.9103
lradius 31.0864
lwrist -5.34516
lhand -4.01857 42.84
lfingers 7.12502
lthumb 21.7361 71.6397
rfemur -27.8306 -7.33732 16.0701
rtibia 60.4224
rfoot -14.4324 -7.09328
rtoes 8.02271
lfemur -7.61347 -1.3989 -29.8368
ltibia 25.7096
lfoot -22.1111 -1.06361
ltoes -7.68915
476
root 0.752893 17.2107 -0.204473 2.12081 1.65205 4.53101
lowerback 2.18564 -0.805298 -8.74237
upperback 0.528523 -1.26355 0.619724
thorax -0.47577 -0.628599 5.58491
lowerneck -13.7117 -1.95631 -2.26314
upperneck 22.7481 -2.17955 -0.0845739
head 9.46326 -1.22072 0.087121
rclavicle 1.33434e-014 1.27222e-014
rhumerus -35.341 -26.3158 -65.2575
rradius 19.5879
rwrist -2.0933
rhand -12.4399 16.9139
rfingers 7.12502
rthumb 13.6331 -12.6197
lclavicle 1.33434e-014 1.27222e-014
lhumerus -30.8257 3.08379 81.9774
lradius 31.6344
lwrist -5.56451
lhand -4.18451 42.3259
lfingers 7.12502
lthumb 21.5768 71.1439
rfemur -28.2737 -6.78324 15.7128
rtibia 58.7172
rfoot -14.7375 -7.31042
rtoes 8.87474
lfemur -7.0881 -1.41959 -30.2216
ltibia 25.5754
lfoot -22.1946 -1.08366
ltoes -7.17756
477
root 0.746648 17.2089 -0.109201 2.14985 1.6476 3.70106
lowerback 2.34704 -0.726944 -7.96101
upperback 0.392245 -1.15962 0.864933
thorax -0.735838 -0.562143 5.40265
lowerneck -13.695 -2.04235 -2.25152
upperneck 22.8604 -2.2303 -0.379584
head 9.49685 -1.27659 -0.0232863
rclavicle 2.23633e-015 -1.59028e-015
rhumerus -35.3667 -25.2994 -65.8219
rradius 20.448
rwrist -3.47906
rhand -11.9996 15.6225
rfingers 7.12502
rthumb 14.0574 -13.882
lclavicle 2.23633e-015 -1.59028e-015
lhumerus -30.6869 2.46248 82.1091
lradius 32.2384
lwrist -5.57589
lhand -3.42924 43.9255
lfingers 7.12502
lthumb 22.302 72.6585
rfemur -28.836 -6.12115 16.7271
rtibia 56.8642
rfoot -14.9626 -7.85393
rtoes 8.68577
lfemur -6.7283 -1.74476 -29.3175
ltibia 25.5324
lfoot -22.4441 -0.837062
ltoes -6.53504
478
root 0.756979 17.198 0.00694695 2.1178 1.78049 4.62339
lowerback 2.37021 -0.802816 -8.89394
upperback 0.410248 -1.28676 0.706858
thorax -0.693501 -0.626159 5.76789
lowerneck -14.1602 -1.94784 -1.72156
upperneck 23.2796 -2.00065 -1.2375
head 9.71448 -1.22252 -0.389646
rclavicle 2.43511e-014 -5.96354e-015
rhumerus -34.8786 -25.1385 -65.9374
rradius 20.5505
rwrist -3.60263
rhand -12.3878 17.0651
rfingers 7.12502
rthumb 13.6832 -12.465
lclavicle 2.43511e-014 -5.96354e-015
lhumerus -30.2752 2.0559 82.3728
lradius 32.3228
lwrist -5.11905
lhand -3.67782 42.8396
lfingers 7.12502
lthumb 22.0633 71.6009
rfemur -29.1239 -6.52561 15.5792
rtibia 54.9683
rfoot -15.3268 -7.38913
rtoes 8.08989
lfemur -5.97549 -1.96729 -30.3719
ltibia 25.2491
lfoot -21.9513 -1.10838
ltoes -4.76609
479
root 0.756508 17.1986 0.0925319 2.39877 1.89 4.22279
lowerback 2.30052 -0.845698 -8.45549
upperback 0.29147 -1.33079 0.780015
thorax -0.779077 -0.641357 5.59759
lowerneck -13.7384 -1.92424 -2.30849
upperneck 22.3577 -2.1254 -0.0703257
head 9.33182 -1.19599 0.108001
rclavicle -1.24737e-014 -2.46493e-014
rhumerus -34.5284 -25.0814 -66.3141
rradius 20.7766
rwrist -3.82839
rhand -12.1432 17.0292
rfingers 7.12502
rthumb 13.919 -12.4849
lclavicle -1.24737e-014 -2.46493e-014
lhumerus -30.2088 1.8594 82.3085
lradius 33.1116
lwrist -5.24206
lhand -3.76639 43.0306
lfingers 7.12502
lthumb 21.9783 71.802
rfemur -29.7866 -6.21806 16.0635
rtibia 52.8513
rfoot -15.4171 -7.59328
rtoes 7.40951
lfemur -5.87621 -1.98461 -29.921
ltibia 24.964
lfoot -22.6028 -0.995346
ltoes -6.78413
